<svg xmlns="http://www.w3.org/2000/svg" xmlns:xlink="http://www.w3.org/1999/xlink" version="1.1" data-diagram-type="SEQUENCE" style="width:2870px;height:2004px;background:#FFFFFF;" width="2870.313px" height="2004.688px" viewBox="0 0 2870 2004" zoomAndPan="magnify" preserveAspectRatio="none" contentStyleType="text/css"><?plantuml 1.2026.8?><defs/><g font-family="sans-serif" lengthAdjust="spacing"><g class="title" data-source-line="4"><text x="1118.864" y="40.282" fill="#000" font-size="21.875" textLength="630.829" font-weight="700" font-family="Helvetica">SD02: Run Monitoring and Review Alerts (UC02; feature F02)</text></g><rect x="788.87" y="323.438" width="2051.561" height="1220.313" fill="none" style="stroke:#7A869A;stroke-width:2.344;"/><rect x="1045.734" y="489.063" width="611.517" height="285.938" fill="none" style="stroke:#7A869A;stroke-width:2.344;"/><rect x="1075.421" y="654.688" width="542.767" height="98.438" fill="none" style="stroke:#7A869A;stroke-width:2.344;"/><rect x="818.558" y="931.25" width="1982.811" height="590.625" fill="none" style="stroke:#7A869A;stroke-width:2.344;"/><rect x="877.933" y="975" width="1702.557" height="120.313" fill="none" style="stroke:#7A869A;stroke-width:2.344;"/><rect x="848.245" y="1151.563" width="1914.061" height="348.438" fill="none" style="stroke:#7A869A;stroke-width:2.344;"/><rect x="877.933" y="1276.563" width="1845.311" height="201.563" fill="none" style="stroke:#7A869A;stroke-width:2.344;"/><g><title>AML Analyst</title><rect x="67.468" y="182.813" width="12.5" height="1804.688" fill="#000" fill-opacity="0"/><line x1="72.937" y1="182.813" x2="72.937" y2="1987.5" style="stroke:#555;stroke-width:0.781;stroke-dasharray:7.813,7.813;"/></g><g><title>..boundary..</title><rect x="401.48" y="182.813" width="12.5" height="1804.688" fill="#000" fill-opacity="0"/><line x1="406.949" y1="182.813" x2="406.949" y2="1987.5" style="stroke:#555;stroke-width:0.781;stroke-dasharray:7.813,7.813;"/></g><g><title></title><rect x="399.136" y="223.438" width="15.625" height="1735.938" fill="#FFF" style="stroke:#181818;stroke-width:1.563;"/></g><g><title>..control..</title><rect x="649.472" y="182.813" width="12.5" height="1804.688" fill="#000" fill-opacity="0"/><line x1="654.941" y1="182.813" x2="654.941" y2="1987.5" style="stroke:#555;stroke-width:0.781;stroke-dasharray:7.813,7.813;"/></g><g><title></title><rect x="647.128" y="264.063" width="15.625" height="1410.938" fill="#FFF" style="stroke:#181818;stroke-width:1.563;"/></g><g><title></title><rect x="647.128" y="1715.625" width="15.625" height="203.125" fill="#FFF" style="stroke:#181818;stroke-width:1.563;"/></g><g><title>..control..</title><rect x="897.464" y="182.813" width="12.5" height="1804.688" fill="#000" fill-opacity="0"/><line x1="902.933" y1="182.813" x2="902.933" y2="1987.5" style="stroke:#555;stroke-width:0.781;stroke-dasharray:7.813,7.813;"/></g><g><title></title><rect x="895.12" y="304.688" width="15.625" height="1329.688" fill="#FFF" style="stroke:#181818;stroke-width:1.563;"/></g><g><title></title><rect x="895.12" y="1756.25" width="15.625" height="121.875" fill="#FFF" style="stroke:#181818;stroke-width:1.563;"/></g><g><title>rule.WindowedRule</title><rect x="1094.952" y="182.813" width="12.5" height="1804.688" fill="#000" fill-opacity="0"/><line x1="1100.421" y1="182.813" x2="1100.421" y2="1987.5" style="stroke:#555;stroke-width:0.781;stroke-dasharray:7.813,7.813;"/></g><g><title></title><rect x="1092.609" y="389.063" width="15.625" height="435.938" fill="#FFF" style="stroke:#181818;stroke-width:1.563;"/></g><g><title>.Ledger</title><rect x="1708.578" y="182.813" width="12.5" height="1804.688" fill="#000" fill-opacity="0"/><line x1="1714.047" y1="182.813" x2="1714.047" y2="1987.5" style="stroke:#555;stroke-width:0.781;stroke-dasharray:7.813,7.813;"/></g><g><title></title><rect x="1706.235" y="429.688" width="15.625" height="40.625" fill="#FFF" style="stroke:#181818;stroke-width:1.563;"/></g><g><title>.ThresholdReportRepository</title><rect x="1895.117" y="182.813" width="12.5" height="1804.688" fill="#000" fill-opacity="0"/><line x1="1900.586" y1="182.813" x2="1900.586" y2="1987.5" style="stroke:#555;stroke-width:0.781;stroke-dasharray:7.813,7.813;"/></g><g><title>.AlertRepository</title><rect x="2116.551" y="182.813" width="12.5" height="1804.688" fill="#000" fill-opacity="0"/><line x1="2122.02" y1="182.813" x2="2122.02" y2="1987.5" style="stroke:#555;stroke-width:0.781;stroke-dasharray:7.813,7.813;"/></g><g><title></title><rect x="2114.207" y="1217.188" width="15.625" height="40.625" fill="#FFF" style="stroke:#181818;stroke-width:1.563;"/></g><g><title></title><rect x="2114.207" y="1796.875" width="15.625" height="40.625" fill="#FFF" style="stroke:#181818;stroke-width:1.563;"/></g><g><title>.RiskScorer</title><rect x="2269.188" y="182.813" width="12.5" height="1804.688" fill="#000" fill-opacity="0"/><line x1="2274.657" y1="182.813" x2="2274.657" y2="1987.5" style="stroke:#555;stroke-width:0.781;stroke-dasharray:7.813,7.813;"/></g><g><title></title><rect x="2266.844" y="1342.188" width="15.625" height="40.625" fill="#FFF" style="stroke:#181818;stroke-width:1.563;"/></g><g><title>.AuditLog</title><rect x="2394.748" y="182.813" width="12.5" height="1804.688" fill="#000" fill-opacity="0"/><line x1="2400.217" y1="182.813" x2="2400.217" y2="1987.5" style="stroke:#555;stroke-width:0.781;stroke-dasharray:7.813,7.813;"/></g><g><title>tr.ThresholdReport</title><rect x="2550.021" y="1012.5" width="12.5" height="975" fill="#000" fill-opacity="0"/><line x1="2555.49" y1="1012.5" x2="2555.49" y2="1987.5" style="stroke:#555;stroke-width:0.781;stroke-dasharray:7.813,7.813;"/></g><g><title>a.Alert</title><rect x="2692.775" y="1395.313" width="12.5" height="592.188" fill="#000" fill-opacity="0"/><line x1="2698.244" y1="1395.313" x2="2698.244" y2="1987.5" style="stroke:#555;stroke-width:0.781;stroke-dasharray:7.813,7.813;"/></g><text x="15.625" y="178.5" fill="#000" font-size="18.75" textLength="105.249" font-family="Helvetica">AML Analyst</text><ellipse cx="72.937" cy="83.594" rx="12.5" ry="12.5" fill="#E2E2F0" style="stroke:#333;stroke-width:0.781;"/><path d="M72.937,96.094 L72.937,138.281 M52.625,108.594 L93.25,108.594 M72.937,138.281 L52.625,161.719 M72.937,138.281 L93.25,161.719" style="stroke:#333;stroke-width:0.781;" fill="none"/><rect x="346.49" y="121.875" width="120.917" height="59.375" fill="#FFF" style="stroke:#333;stroke-width:0.781;"/><text x="357.428" y="147.25" fill="#000" font-size="18.75" textLength="99.042" font-style="italic" font-family="Helvetica">«boundary»</text><text x="360.06" y="166" fill="#000" font-size="18.75" textLength="93.777" font-family="Helvetica">:AlertsView</text><rect x="565.332" y="121.875" width="179.218" height="59.375" fill="#FFF" style="stroke:#333;stroke-width:0.781;"/><text x="616.374" y="147.25" fill="#000" font-size="18.75" textLength="77.133" font-style="italic" font-family="Helvetica">«control»</text><text x="576.27" y="166" fill="#000" font-size="18.75" textLength="157.343" font-family="Helvetica">:TraceWiseFacade</text><rect x="814.359" y="121.875" width="177.148" height="59.375" fill="#FFF" style="stroke:#333;stroke-width:0.781;"/><text x="864.366" y="147.25" fill="#000" font-size="18.75" textLength="77.133" font-style="italic" font-family="Helvetica">«control»</text><text x="825.296" y="166" fill="#000" font-size="18.75" textLength="155.273" font-family="Helvetica">:MonitoringService</text><rect x="1008.194" y="140.625" width="184.454" height="40.625" fill="#FFF" style="stroke:#333;stroke-width:0.781;"/><text x="1019.131" y="166" fill="#000" font-size="18.75" textLength="162.579" font-family="Helvetica">rule:WindowedRule</text><rect x="1671.313" y="140.625" width="85.468" height="40.625" fill="#FFF" style="stroke:#333;stroke-width:0.781;"/><text x="1682.251" y="166" fill="#000" font-size="18.75" textLength="63.593" font-family="Helvetica">:Ledger</text><rect x="1772.406" y="140.625" width="256.36" height="40.625" fill="#FFF" style="stroke:#333;stroke-width:0.781;"/><text x="1783.344" y="166" fill="#000" font-size="18.75" textLength="234.485" font-family="Helvetica">:ThresholdReportRepository</text><rect x="2044.391" y="140.625" width="155.258" height="40.625" fill="#FFF" style="stroke:#333;stroke-width:0.781;"/><text x="2055.328" y="166" fill="#000" font-size="18.75" textLength="133.383" font-family="Helvetica">:AlertRepository</text><rect x="2215.274" y="140.625" width="118.765" height="40.625" fill="#FFF" style="stroke:#333;stroke-width:0.781;"/><text x="2226.212" y="166" fill="#000" font-size="18.75" textLength="96.89" font-family="Helvetica">:RiskScorer</text><rect x="2349.664" y="140.625" width="101.105" height="40.625" fill="#FFF" style="stroke:#333;stroke-width:0.781;"/><text x="2360.602" y="166" fill="#000" font-size="18.75" textLength="79.23" font-family="Helvetica">:AuditLog</text><polygon points="380.386,217.188,396.011,223.438,380.386,229.688" fill="#333" style="stroke:#333;stroke-width:1.563;stroke-linejoin:miter;stroke-miterlimit:10;"/><line x1="72.937" y1="223.438" x2="389.761" y2="223.438" style="stroke:#333;stroke-width:1.563;"/><text x="83.875" y="216" fill="#000" font-size="18.75" font-weight="700" font-family="Helvetica">1</text><text x="100.552" y="216" fill="#000" font-size="18.75" textLength="155.283" font-family="Helvetica">onRunMonitoring()</text><polygon points="628.378,257.813,644.003,264.063,628.378,270.313" fill="#333" style="stroke:#333;stroke-width:1.563;stroke-linejoin:miter;stroke-miterlimit:10;"/><line x1="414.761" y1="264.063" x2="637.753" y2="264.063" style="stroke:#333;stroke-width:1.563;"/><text x="425.699" y="256.625" fill="#000" font-size="18.75" font-weight="700" font-family="Helvetica">2</text><text x="442.377" y="256.625" fill="#000" font-size="18.75" textLength="127.13" font-family="Helvetica">runMonitoring()</text><polygon points="876.37,298.438,891.995,304.688,876.37,310.938" fill="#333" style="stroke:#333;stroke-width:1.563;stroke-linejoin:miter;stroke-miterlimit:10;"/><line x1="662.753" y1="304.688" x2="885.745" y2="304.688" style="stroke:#333;stroke-width:1.563;"/><text x="673.691" y="297.25" fill="#000" font-size="18.75" font-weight="700" font-family="Helvetica">3</text><text x="690.369" y="297.25" fill="#000" font-size="18.75" textLength="39.587" font-family="Helvetica">run()</text><path d="M788.87,323.438 L898.752,323.438 L898.752,329.688 L883.127,345.313 L788.87,345.313 L788.87,323.438" style="stroke:#000;stroke-width:2.344;" fill="#EEE"/><rect x="788.87" y="323.438" width="2051.561" height="1220.313" fill="none" style="stroke:#7A869A;stroke-width:2.344;"/><text x="812.308" y="339.438" fill="#000" font-size="18.75" textLength="39.569" font-weight="700" font-family="Helvetica">loop</text><text x="922.189" y="341" fill="#000" font-size="18.75" textLength="386.508" font-weight="700" font-family="Helvetica">[for each enabled DetectionRule (R1 to R6)]</text><polygon points="1073.859,382.813,1089.484,389.063,1073.859,395.313" fill="#333" style="stroke:#333;stroke-width:1.563;stroke-linejoin:miter;stroke-miterlimit:10;"/><line x1="910.745" y1="389.063" x2="1083.234" y2="389.063" style="stroke:#333;stroke-width:1.563;"/><text x="921.683" y="381.625" fill="#000" font-size="18.75" font-weight="700" font-family="Helvetica">4</text><text x="938.361" y="381.625" fill="#000" font-size="18.75" textLength="135.498" font-family="Helvetica">evaluate(ledger)</text><polygon points="1687.485,423.438,1703.11,429.688,1687.485,435.938" fill="#333" style="stroke:#333;stroke-width:1.563;stroke-linejoin:miter;stroke-miterlimit:10;"/><line x1="1108.234" y1="429.688" x2="1696.86" y2="429.688" style="stroke:#333;stroke-width:1.563;"/><text x="1119.171" y="422.25" fill="#000" font-size="18.75" font-weight="700" font-family="Helvetica">5</text><text x="1135.849" y="422.25" fill="#000" font-size="18.75" textLength="87.534" font-family="Helvetica">accounts()</text><polygon points="1125.421,464.063,1109.796,470.313,1125.421,476.563" fill="#333" style="stroke:#333;stroke-width:1.563;stroke-linejoin:miter;stroke-miterlimit:10;"/><line x1="1116.046" y1="470.313" x2="1704.672" y2="470.313" style="stroke:#333;stroke-width:1.563;stroke-dasharray:3.125,3.125;"/><text x="1134.796" y="462.875" fill="#000" font-size="18.75" font-weight="700" font-family="Helvetica">6</text><text x="1151.474" y="462.875" fill="#000" font-size="18.75" textLength="75.046" font-family="Helvetica">accounts</text><path d="M1045.734,489.063 L1155.615,489.063 L1155.615,495.313 L1139.99,510.938 L1045.734,510.938 L1045.734,489.063" style="stroke:#000;stroke-width:2.344;" fill="#EEE"/><rect x="1045.734" y="489.063" width="611.517" height="285.938" fill="none" style="stroke:#7A869A;stroke-width:2.344;"/><text x="1069.171" y="505.063" fill="#000" font-size="18.75" textLength="39.569" font-weight="700" font-family="Helvetica">loop</text><text x="1179.053" y="506.625" fill="#000" font-size="18.75" textLength="162.524" font-weight="700" font-family="Helvetica">[for each account]</text><line x1="1108.234" y1="554.688" x2="1173.859" y2="554.688" style="stroke:#333;stroke-width:1.563;"/><line x1="1173.859" y1="554.688" x2="1173.859" y2="575" style="stroke:#333;stroke-width:1.563;"/><line x1="1109.796" y1="575" x2="1173.859" y2="575" style="stroke:#333;stroke-width:1.563;"/><polygon points="1125.421,568.75,1109.796,575,1125.421,581.25" fill="#333" style="stroke:#333;stroke-width:1.563;stroke-linejoin:miter;stroke-miterlimit:10;"/><text x="1119.171" y="547.25" fill="#000" font-size="18.75" font-weight="700" font-family="Helvetica">7</text><text x="1135.849" y="547.25" fill="#000" font-size="18.75" textLength="231.39" font-family="Helvetica">candidates(ledger, account)</text><line x1="1108.234" y1="615.625" x2="1173.859" y2="615.625" style="stroke:#333;stroke-width:1.563;"/><line x1="1173.859" y1="615.625" x2="1173.859" y2="635.938" style="stroke:#333;stroke-width:1.563;"/><line x1="1109.796" y1="635.938" x2="1173.859" y2="635.938" style="stroke:#333;stroke-width:1.563;"/><polygon points="1125.421,629.688,1109.796,635.938,1125.421,642.188" fill="#333" style="stroke:#333;stroke-width:1.563;stroke-linejoin:miter;stroke-miterlimit:10;"/><text x="1119.171" y="608.188" fill="#000" font-size="18.75" font-weight="700" font-family="Helvetica">8</text><text x="1135.849" y="608.188" fill="#000" font-size="18.75" textLength="75.018" font-family="Helvetica">window()</text><path d="M1075.421,654.688 L1185.303,654.688 L1185.303,660.938 L1169.678,676.563 L1075.421,676.563 L1075.421,654.688" style="stroke:#000;stroke-width:2.344;" fill="#EEE"/><rect x="1075.421" y="654.688" width="542.767" height="98.438" fill="none" style="stroke:#7A869A;stroke-width:2.344;"/><text x="1098.859" y="670.688" fill="#000" font-size="18.75" textLength="39.569" font-weight="700" font-family="Helvetica">loop</text><text x="1208.74" y="672.25" fill="#000" font-size="18.75" textLength="384.448" font-weight="700" font-family="Helvetica">[for each time window over the candidates]</text><line x1="1108.234" y1="720.313" x2="1173.859" y2="720.313" style="stroke:#333;stroke-width:1.563;"/><line x1="1173.859" y1="720.313" x2="1173.859" y2="740.625" style="stroke:#333;stroke-width:1.563;"/><line x1="1109.796" y1="740.625" x2="1173.859" y2="740.625" style="stroke:#333;stroke-width:1.563;"/><polygon points="1125.421,734.375,1109.796,740.625,1125.421,746.875" fill="#333" style="stroke:#333;stroke-width:1.563;stroke-linejoin:miter;stroke-miterlimit:10;"/><text x="1119.171" y="712.875" fill="#000" font-size="18.75" font-weight="700" font-family="Helvetica">9</text><text x="1135.849" y="712.875" fill="#000" font-size="18.75" textLength="139.618" font-family="Helvetica">isMatch(window)</text><polygon points="927.933,818.75,912.308,825,927.933,831.25" fill="#333" style="stroke:#333;stroke-width:1.563;stroke-linejoin:miter;stroke-miterlimit:10;"/><line x1="918.558" y1="825" x2="1091.046" y2="825" style="stroke:#333;stroke-width:1.563;stroke-dasharray:3.125,3.125;"/><text x="937.308" y="817.563" fill="#000" font-size="18.75" textLength="20.856" font-weight="700" font-family="Helvetica">10</text><text x="964.413" y="817.563" fill="#000" font-size="18.75" textLength="70.862" font-family="Helvetica">matches</text><path d="M1108.234,845.313 L1108.234,917.188 L1433.234,917.188 L1433.234,860.938 L1417.609,845.313 L1108.234,845.313" style="stroke:#B8A35A;stroke-width:0.781;" fill="#FFFBE6"/><path d="M1417.609,845.313 L1417.609,860.938 L1433.234,860.938 L1417.609,845.313" style="stroke:#B8A35A;stroke-width:0.781;" fill="#FFFBE6"/><text x="1117.609" y="867.563" fill="#000" font-size="18.75" textLength="258.453" font-family="Helvetica">Template Method: evaluate() is</text><text x="1117.609" y="886.313" fill="#000" font-size="18.75" textLength="292.859" font-family="Helvetica">shared; candidates(), window() and</text><text x="1117.609" y="905.063" fill="#000" font-size="18.75" textLength="197.974" font-family="Helvetica">isMatch() differ per rule.</text><path d="M818.558,931.25 L910.751,931.25 L910.751,937.5 L895.126,953.125 L818.558,953.125 L818.558,931.25" style="stroke:#000;stroke-width:2.344;" fill="#EEE"/><rect x="818.558" y="931.25" width="1982.811" height="590.625" fill="none" style="stroke:#7A869A;stroke-width:2.344;"/><text x="841.995" y="947.25" fill="#000" font-size="18.75" textLength="21.881" font-weight="700" font-family="Helvetica">alt</text><text x="934.189" y="948.813" fill="#000" font-size="18.75" textLength="309.402" font-weight="700" font-family="Helvetica">[rule kind is THRESHOLD (R1, R2)]</text><path d="M877.933,975 L987.814,975 L987.814,981.25 L972.189,996.875 L877.933,996.875 L877.933,975" style="stroke:#000;stroke-width:2.344;" fill="#EEE"/><rect x="877.933" y="975" width="1702.557" height="120.313" fill="none" style="stroke:#7A869A;stroke-width:2.344;"/><text x="901.37" y="991" fill="#000" font-size="18.75" textLength="39.569" font-weight="700" font-family="Helvetica">loop</text><text x="1011.252" y="992.563" fill="#000" font-size="18.75" textLength="145.862" font-weight="700" font-family="Helvetica">[for each match]</text><rect x="2466.394" y="1012.5" width="178.192" height="40.625" fill="#FFF" style="stroke:#333;stroke-width:0.781;"/><text x="2477.332" y="1037.875" fill="#000" font-size="18.75" textLength="156.317" font-family="Helvetica">tr:ThresholdReport</text><polygon points="2447.644,1034.375,2463.269,1040.625,2447.644,1046.875" fill="#333" style="stroke:#333;stroke-width:1.563;stroke-linejoin:miter;stroke-miterlimit:10;"/><line x1="910.745" y1="1040.625" x2="2457.019" y2="1040.625" style="stroke:#333;stroke-width:1.563;"/><text x="921.683" y="1033.188" fill="#000" font-size="18.75" textLength="20.856" font-weight="700" font-family="Helvetica">11</text><text x="948.788" y="1033.188" fill="#000" font-size="18.75" textLength="72.968" font-family="Helvetica">«create»</text><polygon points="1881.836,1076.563,1897.461,1082.813,1881.836,1089.063" fill="#333" style="stroke:#333;stroke-width:1.563;stroke-linejoin:miter;stroke-miterlimit:10;"/><line x1="910.745" y1="1082.813" x2="1891.211" y2="1082.813" style="stroke:#333;stroke-width:1.563;"/><text x="921.683" y="1075.375" fill="#000" font-size="18.75" textLength="20.856" font-weight="700" font-family="Helvetica">12</text><text x="948.788" y="1075.375" fill="#000" font-size="18.75" textLength="63.547" font-family="Helvetica">save(tr)</text><line x1="818.558" y1="1118.75" x2="2801.369" y2="1118.75" style="stroke:#7A869A;stroke-width:1.563;stroke-dasharray:3.125,3.125;"/><text x="826.37" y="1136.313" fill="#000" font-size="18.75" textLength="313.577" font-weight="700" font-family="Helvetica">[rule kind is SUSPICION (R3 to R6)]</text><path d="M848.245,1151.563 L958.127,1151.563 L958.127,1157.813 L942.502,1173.438 L848.245,1173.438 L848.245,1151.563" style="stroke:#000;stroke-width:2.344;" fill="#EEE"/><rect x="848.245" y="1151.563" width="1914.061" height="348.438" fill="none" style="stroke:#7A869A;stroke-width:2.344;"/><text x="871.683" y="1167.563" fill="#000" font-size="18.75" textLength="39.569" font-weight="700" font-family="Helvetica">loop</text><text x="981.564" y="1169.125" fill="#000" font-size="18.75" textLength="145.862" font-weight="700" font-family="Helvetica">[for each match]</text><polygon points="2095.457,1210.938,2111.082,1217.188,2095.457,1223.438" fill="#333" style="stroke:#333;stroke-width:1.563;stroke-linejoin:miter;stroke-miterlimit:10;"/><line x1="910.745" y1="1217.188" x2="2104.832" y2="1217.188" style="stroke:#333;stroke-width:1.563;"/><text x="921.683" y="1209.75" fill="#000" font-size="18.75" textLength="20.856" font-weight="700" font-family="Helvetica">13</text><text x="948.788" y="1209.75" fill="#000" font-size="18.75" textLength="178.198" font-family="Helvetica">hasOpenAlert(match)</text><polygon points="927.933,1251.563,912.308,1257.813,927.933,1264.063" fill="#333" style="stroke:#333;stroke-width:1.563;stroke-linejoin:miter;stroke-miterlimit:10;"/><line x1="918.558" y1="1257.813" x2="2112.645" y2="1257.813" style="stroke:#333;stroke-width:1.563;stroke-dasharray:3.125,3.125;"/><text x="937.308" y="1250.375" fill="#000" font-size="18.75" textLength="20.856" font-weight="700" font-family="Helvetica">14</text><text x="964.413" y="1250.375" fill="#000" font-size="18.75" textLength="130.27" font-family="Helvetica">openAlertExists</text><path d="M877.933,1276.563 L977.396,1276.563 L977.396,1282.813 L961.771,1298.438 L877.933,1298.438 L877.933,1276.563" style="stroke:#000;stroke-width:2.344;" fill="#EEE"/><rect x="877.933" y="1276.563" width="1845.311" height="201.563" fill="none" style="stroke:#7A869A;stroke-width:2.344;"/><text x="901.37" y="1292.563" fill="#000" font-size="18.75" textLength="29.15" font-weight="700" font-family="Helvetica">opt</text><text x="1000.833" y="1294.125" fill="#000" font-size="18.75" textLength="317.761" font-weight="700" font-family="Helvetica">[no open alert exists for this match]</text><polygon points="2248.094,1335.938,2263.719,1342.188,2248.094,1348.438" fill="#333" style="stroke:#333;stroke-width:1.563;stroke-linejoin:miter;stroke-miterlimit:10;"/><line x1="910.745" y1="1342.188" x2="2257.469" y2="1342.188" style="stroke:#333;stroke-width:1.563;"/><text x="921.683" y="1334.75" fill="#000" font-size="18.75" textLength="20.856" font-weight="700" font-family="Helvetica">15</text><text x="948.788" y="1334.75" fill="#000" font-size="18.75" textLength="185.486" font-family="Helvetica">score(match, account)</text><polygon points="927.933,1376.563,912.308,1382.813,927.933,1389.063" fill="#333" style="stroke:#333;stroke-width:1.563;stroke-linejoin:miter;stroke-miterlimit:10;"/><line x1="918.558" y1="1382.813" x2="2265.282" y2="1382.813" style="stroke:#333;stroke-width:1.563;stroke-dasharray:3.125,3.125;"/><text x="937.308" y="1375.375" fill="#000" font-size="18.75" textLength="20.856" font-weight="700" font-family="Helvetica">16</text><text x="964.413" y="1375.375" fill="#000" font-size="18.75" textLength="78.14" font-family="Helvetica">riskScore</text><rect x="2660.211" y="1395.313" width="76.065" height="40.625" fill="#FFF" style="stroke:#333;stroke-width:0.781;"/><text x="2671.149" y="1420.688" fill="#000" font-size="18.75" textLength="54.19" font-family="Helvetica">a:Alert</text><polygon points="2641.461,1417.188,2657.086,1423.438,2641.461,1429.688" fill="#333" style="stroke:#333;stroke-width:1.563;stroke-linejoin:miter;stroke-miterlimit:10;"/><line x1="910.745" y1="1423.438" x2="2650.836" y2="1423.438" style="stroke:#333;stroke-width:1.563;"/><text x="921.683" y="1416" fill="#000" font-size="18.75" textLength="20.856" font-weight="700" font-family="Helvetica">17</text><text x="948.788" y="1416" fill="#000" font-size="18.75" textLength="72.968" font-family="Helvetica">«create»</text><polygon points="2103.27,1459.375,2118.895,1465.625,2103.27,1471.875" fill="#333" style="stroke:#333;stroke-width:1.563;stroke-linejoin:miter;stroke-miterlimit:10;"/><line x1="910.745" y1="1465.625" x2="2112.645" y2="1465.625" style="stroke:#333;stroke-width:1.563;"/><text x="921.683" y="1458.188" fill="#000" font-size="18.75" textLength="20.856" font-weight="700" font-family="Helvetica">18</text><text x="948.788" y="1458.188" fill="#000" font-size="18.75" textLength="62.521" font-family="Helvetica">save(a)</text><polygon points="2381.467,1587.5,2397.092,1593.75,2381.467,1600" fill="#333" style="stroke:#333;stroke-width:1.563;stroke-linejoin:miter;stroke-miterlimit:10;"/><line x1="910.745" y1="1593.75" x2="2390.842" y2="1593.75" style="stroke:#333;stroke-width:1.563;"/><text x="921.683" y="1586.313" fill="#000" font-size="18.75" textLength="20.856" font-weight="700" font-family="Helvetica">19</text><text x="948.788" y="1586.313" fill="#000" font-size="18.75" textLength="116.739" font-family="Helvetica">append(entry)</text><polygon points="679.941,1628.125,664.316,1634.375,679.941,1640.625" fill="#333" style="stroke:#333;stroke-width:1.563;stroke-linejoin:miter;stroke-miterlimit:10;"/><line x1="670.566" y1="1634.375" x2="893.558" y2="1634.375" style="stroke:#333;stroke-width:1.563;stroke-dasharray:3.125,3.125;"/><text x="689.316" y="1626.938" fill="#000" font-size="18.75" textLength="20.856" font-weight="700" font-family="Helvetica">20</text><text x="716.422" y="1626.938" fill="#000" font-size="18.75" textLength="167.761" font-family="Helvetica">monitoringSummary</text><polygon points="431.949,1668.75,416.324,1675,431.949,1681.25" fill="#333" style="stroke:#333;stroke-width:1.563;stroke-linejoin:miter;stroke-miterlimit:10;"/><line x1="422.574" y1="1675" x2="645.566" y2="1675" style="stroke:#333;stroke-width:1.563;stroke-dasharray:3.125,3.125;"/><text x="441.324" y="1667.563" fill="#000" font-size="18.75" textLength="20.856" font-weight="700" font-family="Helvetica">21</text><text x="468.43" y="1667.563" fill="#000" font-size="18.75" textLength="167.761" font-family="Helvetica">monitoringSummary</text><polygon points="628.378,1709.375,644.003,1715.625,628.378,1721.875" fill="#333" style="stroke:#333;stroke-width:1.563;stroke-linejoin:miter;stroke-miterlimit:10;"/><line x1="414.761" y1="1715.625" x2="637.753" y2="1715.625" style="stroke:#333;stroke-width:1.563;"/><text x="425.699" y="1708.188" fill="#000" font-size="18.75" textLength="20.856" font-weight="700" font-family="Helvetica">22</text><text x="452.805" y="1708.188" fill="#000" font-size="18.75" textLength="118.753" font-family="Helvetica">listAlerts(filter)</text><polygon points="876.37,1750,891.995,1756.25,876.37,1762.5" fill="#333" style="stroke:#333;stroke-width:1.563;stroke-linejoin:miter;stroke-miterlimit:10;"/><line x1="662.753" y1="1756.25" x2="885.745" y2="1756.25" style="stroke:#333;stroke-width:1.563;"/><text x="673.691" y="1748.813" fill="#000" font-size="18.75" textLength="20.856" font-weight="700" font-family="Helvetica">23</text><text x="700.797" y="1748.813" fill="#000" font-size="18.75" textLength="118.753" font-family="Helvetica">listAlerts(filter)</text><polygon points="2095.457,1790.625,2111.082,1796.875,2095.457,1803.125" fill="#333" style="stroke:#333;stroke-width:1.563;stroke-linejoin:miter;stroke-miterlimit:10;"/><line x1="910.745" y1="1796.875" x2="2104.832" y2="1796.875" style="stroke:#333;stroke-width:1.563;"/><text x="921.683" y="1789.438" fill="#000" font-size="18.75" textLength="20.856" font-weight="700" font-family="Helvetica">24</text><text x="948.788" y="1789.438" fill="#000" font-size="18.75" textLength="78.14" font-family="Helvetica">find(filter)</text><polygon points="927.933,1831.25,912.308,1837.5,927.933,1843.75" fill="#333" style="stroke:#333;stroke-width:1.563;stroke-linejoin:miter;stroke-miterlimit:10;"/><line x1="918.558" y1="1837.5" x2="2112.645" y2="1837.5" style="stroke:#333;stroke-width:1.563;stroke-dasharray:3.125,3.125;"/><text x="937.308" y="1830.063" fill="#000" font-size="18.75" textLength="20.856" font-weight="700" font-family="Helvetica">25</text><text x="964.413" y="1830.063" fill="#000" font-size="18.75" textLength="45.85" font-family="Helvetica">alerts</text><polygon points="679.941,1871.875,664.316,1878.125,679.941,1884.375" fill="#333" style="stroke:#333;stroke-width:1.563;stroke-linejoin:miter;stroke-miterlimit:10;"/><line x1="670.566" y1="1878.125" x2="893.558" y2="1878.125" style="stroke:#333;stroke-width:1.563;stroke-dasharray:3.125,3.125;"/><text x="689.316" y="1870.688" fill="#000" font-size="18.75" textLength="20.856" font-weight="700" font-family="Helvetica">26</text><text x="716.422" y="1870.688" fill="#000" font-size="18.75" textLength="45.85" font-family="Helvetica">alerts</text><polygon points="431.949,1912.5,416.324,1918.75,431.949,1925" fill="#333" style="stroke:#333;stroke-width:1.563;stroke-linejoin:miter;stroke-miterlimit:10;"/><line x1="422.574" y1="1918.75" x2="645.566" y2="1918.75" style="stroke:#333;stroke-width:1.563;stroke-dasharray:3.125,3.125;"/><text x="441.324" y="1911.313" fill="#000" font-size="18.75" textLength="20.856" font-weight="700" font-family="Helvetica">27</text><text x="468.43" y="1911.313" fill="#000" font-size="18.75" textLength="45.85" font-family="Helvetica">alerts</text><polygon points="90.125,1953.125,74.5,1959.375,90.125,1965.625" fill="#333" style="stroke:#333;stroke-width:1.563;stroke-linejoin:miter;stroke-miterlimit:10;"/><line x1="80.75" y1="1959.375" x2="397.574" y2="1959.375" style="stroke:#333;stroke-width:1.563;stroke-dasharray:3.125,3.125;"/><text x="99.5" y="1951.938" fill="#000" font-size="18.75" textLength="20.856" font-weight="700" font-family="Helvetica">28</text><text x="126.605" y="1951.938" fill="#000" font-size="18.75" textLength="261.594" font-family="Helvetica">show summary and alert queue</text><?plantuml-src XLLBJ-Cm4BxdLynoIYGMiLrf3mKX8Hu2gIohj2mNBYQUDXQkdRMTilttEtuaRTF27X8vdc--VFFm-8jGbMmvWdLhYIUYNSgi5lGzrzgzwhyPQvrMxV8LJUQ4amZJwzFH6CfMmODMmcaZr0AOub3YIk0xN4eqpaB-T7KwEeCvCjSQXDlJKP5bh28y75q-JE1ICRcsxWYOxTPPmumJbMYOSd0qZaI_YJE0_0BEprzrgpWpwukB0NncM8NFmk8jgnZ7u1ENv5LfvOoMUqwR4APeLgAARhJxiOzf9OwVXUBw7Nb97y75BmRS4-GBDC4QbqF1jK5RQybBRBHn_cszc7LmcPL-ur1A1i1-Ru0jXNsRLjea2N4vv6kvS1EzY4J-8yjICU3hHKpv6BIYQcyobHU-ZcB570P45c04JzaUW_a87X5P0fABptJ0RwDeCvDQDzI31f1LDQ1Yhn8vNAD3Gdb1r8bv-GsSXl97aK5W8i9W60Ekc6o9AvSXynxGquTIGKIIHwmD-R2gejvoDjz1fz816AH6LZsATdOr9WFjRxYJcegEX-34PfEUumvT78A_X-RAestt9quiCTb1hqYsgt6BFdZiyGdxm5nLvz4lqgBYMVTEaIqzA70eJO4RiQWTw7d7CiDb8qDvqDMQR-Mue3-yA5ipW_niEzZYk8_5JuWNrIafW8lvdEGtzFW3TU9JBbrOmnlv42NCxigRwTtZvDfN-XZAqQ6C1DKfxigW5xZJuyuC3rewNiadzSsif13fp0S6El83e_SaW6Khp9tPIQ6qk2jx-ZJzTNzr__YJP7_VDEXdmjD_-gDClwgPVMnGXQqyO8i4xbjpS_AZ8TLHTsutVuLrNK_enb5TWv4oJLR0O0w2N4swjmNrakBOyA7xHHGowDuTJMdCTFj9akbcKMyuL2eMvzjcgWt5XCr3TJgOmL0irccCrTfkVFzqRdxq-H7GK7fuZZJurqNMdOlD7T4kbtJrV6pOcuIIKXpliNmkfFEJw7_3y3CNFnaFH3gdpji7RzgZ6rs1zTEl682dJxS0fR6cMMDZWE6UZztpfyKMCuuxLy4_?></g></svg>